<?xml version="1.0" encoding="UTF-8" standalone="no"?>
<!-- Created with Inkscape (http://www.inkscape.org/) -->

<svg
   width="1080"
   height="1080"
   viewBox="0 0 1080 1080"
   version="1.1"
   id="svg1"
   inkscape:version="1.3.2 (091e20ef0f, 2023-11-25, custom)"
   sodipodi:docname="texture.svg"
   xmlns:inkscape="http://www.inkscape.org/namespaces/inkscape"
   xmlns:sodipodi="http://sodipodi.sourceforge.net/DTD/sodipodi-0.dtd"
   xmlns="http://www.w3.org/2000/svg"
   xmlns:svg="http://www.w3.org/2000/svg">
  <sodipodi:namedview
     id="namedview1"
     pagecolor="#ffffff"
     bordercolor="#000000"
     borderopacity="0.25"
     inkscape:showpageshadow="2"
     inkscape:pageopacity="0.0"
     inkscape:pagecheckerboard="0"
     inkscape:deskcolor="#d1d1d1"
     inkscape:document-units="px"
     showgrid="true"
     showguides="true"
     inkscape:zoom="0.4317911"
     inkscape:cx="455.08117"
     inkscape:cy="419.18418"
     inkscape:window-width="1860"
     inkscape:window-height="1172"
     inkscape:window-x="0"
     inkscape:window-y="0"
     inkscape:window-maximized="1"
     inkscape:current-layer="layer2">
    <sodipodi:guide
       position="0,1080"
       orientation="0,1080"
       id="guide1"
       inkscape:locked="false" />
    <sodipodi:guide
       position="1080,1080"
       orientation="1080,0"
       id="guide2"
       inkscape:locked="false" />
    <sodipodi:guide
       position="1080,0"
       orientation="0,-1080"
       id="guide3"
       inkscape:locked="false" />
    <sodipodi:guide
       position="0,0"
       orientation="-1080,0"
       id="guide4"
       inkscape:locked="false" />
    <inkscape:grid
       id="grid4"
       units="px"
       originx="0"
       originy="0"
       spacingx="180"
       spacingy="180"
       empcolor="#0099e5"
       empopacity="0.30196078"
       color="#0099e5"
       opacity="0.14901961"
       empspacing="5"
       dotted="false"
       gridanglex="30"
       gridanglez="30"
       visible="true" />
    <sodipodi:guide
       position="-82.022642,1068.0694"
       orientation="1,0"
       id="guide5"
       inkscape:locked="false" />
  </sodipodi:namedview>
  <defs
     id="defs1" />
  <g
     inkscape:groupmode="layer"
     id="layer2"
     inkscape:label="background">
    <rect
       style="fill:#000000;fill-opacity:1"
       id="rect43"
       width="1081.5415"
       height="1079.2256"
       x="0"
       y="0" />
  </g>
  <g
     inkscape:label="Layer 1"
     inkscape:groupmode="layer"
     id="layer1">
    <circle
       style="fill:#ff0000;stroke-width:0.775839"
       id="path4"
       cx="90"
       cy="90"
       r="70" />
    <circle
       style="fill:#ffd42a;stroke-width:0.775839"
       id="circle5"
       cx="270"
       cy="90"
       r="70" />
    <circle
       style="fill:#008000;stroke-width:0.775839"
       id="circle6"
       cx="450"
       cy="90"
       r="70" />
    <circle
       style="fill:#ff6600;stroke-width:0.775839"
       id="circle7"
       cx="630"
       cy="90"
       r="70" />
    <circle
       style="fill:#800080;stroke-width:0.775839"
       id="circle8"
       cx="990"
       cy="90"
       r="70" />
    <circle
       style="fill:#0000ff;stroke-width:0.775839"
       id="circle9"
       cx="810"
       cy="90"
       r="70" />
    <rect
       style="fill:#ff0000;stroke-width:0.899186"
       id="rect9"
       width="120"
       height="120"
       x="30"
       y="210" />
    <rect
       style="fill:#ffd42a;stroke-width:0.899186"
       id="rect10"
       width="120"
       height="120"
       x="210"
       y="210" />
    <rect
       style="fill:#008000;stroke-width:0.899186"
       id="rect11"
       width="120"
       height="120"
       x="390"
       y="210" />
    <rect
       style="fill:#ff6600;stroke-width:0.899186"
       id="rect12"
       width="120"
       height="120"
       x="570"
       y="210" />
    <rect
       style="fill:#0000ff;stroke-width:0.899186"
       id="rect13"
       width="120"
       height="120"
       x="750"
       y="210" />
    <rect
       style="fill:#800080;stroke-width:0.899186"
       id="rect14"
       width="120"
       height="120"
       x="930"
       y="210" />
    <path
       sodipodi:type="star"
       style="fill:#ff0000"
       id="path15"
       inkscape:flatsided="false"
       sodipodi:sides="8"
       sodipodi:cx="83.513962"
       sodipodi:cy="365.3736"
       sodipodi:r1="130.95009"
       sodipodi:r2="63.644997"
       sodipodi:arg1="-0.0078853838"
       sodipodi:arg2="0.38481367"
       inkscape:rounded="0"
       inkscape:randomized="0"
       d="m 214.45998,364.34102 -71.95548,24.92404 34.33242,67.97121 -68.50417,-33.25625 -23.786207,72.33959 -24.92405,-71.95548 -67.971203,34.33243 33.256244,-68.50418 -72.33959,-23.7862 71.955482,-24.92405 -34.3324261,-67.97121 68.5041731,33.25625 23.786208,-72.33959 24.924049,71.95548 67.9712,-34.33243 -33.25624,68.50418 z"
       inkscape:transform-center-x="0.21921146"
       inkscape:transform-center-y="-7.6912607"
       transform="matrix(0.61093878,0,0,0.61093878,38.978082,226.7791)" />
    <path
       sodipodi:type="star"
       style="fill:#ffd42a"
       id="path16"
       inkscape:flatsided="false"
       sodipodi:sides="8"
       sodipodi:cx="83.513962"
       sodipodi:cy="365.3736"
       sodipodi:r1="130.95009"
       sodipodi:r2="63.644997"
       sodipodi:arg1="-0.0078853838"
       sodipodi:arg2="0.38481367"
       inkscape:rounded="0"
       inkscape:randomized="0"
       d="m 214.45998,364.34102 -71.95548,24.92404 34.33242,67.97121 -68.50417,-33.25625 -23.786207,72.33959 -24.92405,-71.95548 -67.971203,34.33243 33.256244,-68.50418 -72.33959,-23.7862 71.955482,-24.92405 -34.3324261,-67.97121 68.5041731,33.25625 23.786208,-72.33959 24.924049,71.95548 67.9712,-34.33243 -33.25624,68.50418 z"
       inkscape:transform-center-x="0.21921146"
       inkscape:transform-center-y="-7.6912607"
       transform="matrix(0.61093878,0,0,0.61093878,218.97808,226.7791)" />
    <path
       sodipodi:type="star"
       style="fill:#008000"
       id="path17"
       inkscape:flatsided="false"
       sodipodi:sides="8"
       sodipodi:cx="83.513962"
       sodipodi:cy="365.3736"
       sodipodi:r1="130.95009"
       sodipodi:r2="63.644997"
       sodipodi:arg1="-0.0078853838"
       sodipodi:arg2="0.38481367"
       inkscape:rounded="0"
       inkscape:randomized="0"
       d="m 214.45998,364.34102 -71.95548,24.92404 34.33242,67.97121 -68.50417,-33.25625 -23.786207,72.33959 -24.92405,-71.95548 -67.971203,34.33243 33.256244,-68.50418 -72.33959,-23.7862 71.955482,-24.92405 -34.3324261,-67.97121 68.5041731,33.25625 23.786208,-72.33959 24.924049,71.95548 67.9712,-34.33243 -33.25624,68.50418 z"
       inkscape:transform-center-x="0.21921146"
       inkscape:transform-center-y="-7.6912607"
       transform="matrix(0.61093878,0,0,0.61093878,398.97808,226.7791)" />
    <path
       sodipodi:type="star"
       style="fill:#ff6600"
       id="path18"
       inkscape:flatsided="false"
       sodipodi:sides="8"
       sodipodi:cx="83.513962"
       sodipodi:cy="365.3736"
       sodipodi:r1="130.95009"
       sodipodi:r2="63.644997"
       sodipodi:arg1="-0.0078853838"
       sodipodi:arg2="0.38481367"
       inkscape:rounded="0"
       inkscape:randomized="0"
       d="m 214.45998,364.34102 -71.95548,24.92404 34.33242,67.97121 -68.50417,-33.25625 -23.786207,72.33959 -24.92405,-71.95548 -67.971203,34.33243 33.256244,-68.50418 -72.33959,-23.7862 71.955482,-24.92405 -34.3324261,-67.97121 68.5041731,33.25625 23.786208,-72.33959 24.924049,71.95548 67.9712,-34.33243 -33.25624,68.50418 z"
       inkscape:transform-center-x="0.21921146"
       inkscape:transform-center-y="-7.6912607"
       transform="matrix(0.61093878,0,0,0.61093878,578.97808,226.7791)" />
    <path
       sodipodi:type="star"
       style="fill:#0000ff"
       id="path19"
       inkscape:flatsided="false"
       sodipodi:sides="8"
       sodipodi:cx="83.513962"
       sodipodi:cy="365.3736"
       sodipodi:r1="130.95009"
       sodipodi:r2="63.644997"
       sodipodi:arg1="-0.0078853838"
       sodipodi:arg2="0.38481367"
       inkscape:rounded="0"
       inkscape:randomized="0"
       d="m 214.45998,364.34102 -71.95548,24.92404 34.33242,67.97121 -68.50417,-33.25625 -23.786207,72.33959 -24.92405,-71.95548 -67.971203,34.33243 33.256244,-68.50418 -72.33959,-23.7862 71.955482,-24.92405 -34.3324261,-67.97121 68.5041731,33.25625 23.786208,-72.33959 24.924049,71.95548 67.9712,-34.33243 -33.25624,68.50418 z"
       inkscape:transform-center-x="0.21921146"
       inkscape:transform-center-y="-7.6912607"
       transform="matrix(0.61093878,0,0,0.61093878,758.97808,226.7791)" />
    <path
       sodipodi:type="star"
       style="fill:#800080"
       id="path20"
       inkscape:flatsided="false"
       sodipodi:sides="8"
       sodipodi:cx="83.513962"
       sodipodi:cy="365.3736"
       sodipodi:r1="130.95009"
       sodipodi:r2="63.644997"
       sodipodi:arg1="-0.0078853838"
       sodipodi:arg2="0.38481367"
       inkscape:rounded="0"
       inkscape:randomized="0"
       d="m 214.45998,364.34102 -71.95548,24.92404 34.33242,67.97121 -68.50417,-33.25625 -23.786207,72.33959 -24.92405,-71.95548 -67.971203,34.33243 33.256244,-68.50418 -72.33959,-23.7862 71.955482,-24.92405 -34.3324261,-67.97121 68.5041731,33.25625 23.786208,-72.33959 24.924049,71.95548 67.9712,-34.33243 -33.25624,68.50418 z"
       inkscape:transform-center-x="0.21921146"
       inkscape:transform-center-y="-7.6912607"
       transform="matrix(0.61093878,0,0,0.61093878,938.97808,226.7791)" />
    <rect
       style="fill:#ff0000;stroke-width:0.847761"
       id="rect20"
       width="113.13708"
       height="113.13708"
       x="452.54834"
       y="325.2691"
       transform="rotate(44.999999)" />
    <rect
       style="fill:#ffd42a;stroke-width:0.847761"
       id="rect21"
       width="113.13708"
       height="113.13708"
       x="579.82751"
       y="197.9899"
       transform="rotate(44.999999)" />
    <rect
       style="fill:#008000;stroke-width:0.847761"
       id="rect22"
       width="113.13708"
       height="113.13708"
       x="707.10675"
       y="70.710663"
       transform="rotate(44.999999)" />
    <rect
       style="fill:#ff6600;stroke-width:0.847761"
       id="rect23"
       width="113.13708"
       height="113.13708"
       x="834.38599"
       y="-56.56855"
       transform="rotate(44.999999)" />
    <rect
       style="fill:#0000ff;stroke-width:0.847761"
       id="rect24"
       width="113.13708"
       height="113.13708"
       x="961.66522"
       y="-183.84776"
       transform="rotate(44.999999)" />
    <rect
       style="fill:#800080;stroke-width:0.847761"
       id="rect25"
       width="113.13708"
       height="113.13708"
       x="1088.9445"
       y="-311.12698"
       transform="rotate(44.999999)" />
    <path
       sodipodi:type="star"
       style="fill:#ff0000"
       id="path25"
       inkscape:flatsided="false"
       sodipodi:sides="4"
       sodipodi:cx="83.513962"
       sodipodi:cy="365.3736"
       sodipodi:r1="130.95009"
       sodipodi:r2="42.689728"
       sodipodi:arg1="-0.0078853838"
       sodipodi:arg2="0.77751278"
       inkscape:rounded="0"
       inkscape:randomized="0"
       d="M 214.45998,364.34102 113.93725,395.32083 84.546543,496.31961 53.566732,395.79688 -47.432056,366.40618 53.090677,335.42637 82.481381,234.42758 113.46119,334.95031 Z"
       inkscape:transform-center-x="-6.4869036"
       inkscape:transform-center-y="-6.8675029"
       transform="matrix(0.53038902,0.53038902,-0.53038902,0.53038902,239.49525,571.91497)" />
    <path
       sodipodi:type="star"
       style="fill:#ffd42a"
       id="path26"
       inkscape:flatsided="false"
       sodipodi:sides="4"
       sodipodi:cx="83.513962"
       sodipodi:cy="365.3736"
       sodipodi:r1="130.95009"
       sodipodi:r2="42.689728"
       sodipodi:arg1="-0.0078853838"
       sodipodi:arg2="0.77751278"
       inkscape:rounded="0"
       inkscape:randomized="0"
       d="M 214.45998,364.34102 113.93725,395.32083 84.546543,496.31961 53.566732,395.79688 -47.432056,366.40618 53.090677,335.42637 82.481381,234.42758 113.46119,334.95031 Z"
       inkscape:transform-center-x="-6.4869036"
       inkscape:transform-center-y="-6.8675029"
       transform="matrix(0.53038902,0.53038902,-0.53038902,0.53038902,419.49525,571.91497)" />
    <path
       sodipodi:type="star"
       style="fill:#008000"
       id="path27"
       inkscape:flatsided="false"
       sodipodi:sides="4"
       sodipodi:cx="83.513962"
       sodipodi:cy="365.3736"
       sodipodi:r1="130.95009"
       sodipodi:r2="42.689728"
       sodipodi:arg1="-0.0078853838"
       sodipodi:arg2="0.77751278"
       inkscape:rounded="0"
       inkscape:randomized="0"
       d="M 214.45998,364.34102 113.93725,395.32083 84.546543,496.31961 53.566732,395.79688 -47.432056,366.40618 53.090677,335.42637 82.481381,234.42758 113.46119,334.95031 Z"
       inkscape:transform-center-x="-6.4869036"
       inkscape:transform-center-y="-6.8675029"
       transform="matrix(0.53038902,0.53038902,-0.53038902,0.53038902,599.49525,571.91497)" />
    <path
       sodipodi:type="star"
       style="fill:#ff6600"
       id="path28"
       inkscape:flatsided="false"
       sodipodi:sides="4"
       sodipodi:cx="83.513962"
       sodipodi:cy="365.3736"
       sodipodi:r1="130.95009"
       sodipodi:r2="42.689728"
       sodipodi:arg1="-0.0078853838"
       sodipodi:arg2="0.77751278"
       inkscape:rounded="0"
       inkscape:randomized="0"
       d="M 214.45998,364.34102 113.93725,395.32083 84.546543,496.31961 53.566732,395.79688 -47.432056,366.40618 53.090677,335.42637 82.481381,234.42758 113.46119,334.95031 Z"
       inkscape:transform-center-x="-6.4869036"
       inkscape:transform-center-y="-6.8675029"
       transform="matrix(0.53038902,0.53038902,-0.53038902,0.53038902,779.49525,571.91497)" />
    <path
       sodipodi:type="star"
       style="fill:#0000ff"
       id="path29"
       inkscape:flatsided="false"
       sodipodi:sides="4"
       sodipodi:cx="83.513962"
       sodipodi:cy="365.3736"
       sodipodi:r1="130.95009"
       sodipodi:r2="42.689728"
       sodipodi:arg1="-0.0078853838"
       sodipodi:arg2="0.77751278"
       inkscape:rounded="0"
       inkscape:randomized="0"
       d="M 214.45998,364.34102 113.93725,395.32083 84.546543,496.31961 53.566732,395.79688 -47.432056,366.40618 53.090677,335.42637 82.481381,234.42758 113.46119,334.95031 Z"
       inkscape:transform-center-x="-6.4869036"
       inkscape:transform-center-y="-6.8675029"
       transform="matrix(0.53038902,0.53038902,-0.53038902,0.53038902,959.49525,571.91497)" />
    <path
       sodipodi:type="star"
       style="fill:#800080"
       id="path30"
       inkscape:flatsided="false"
       sodipodi:sides="4"
       sodipodi:cx="83.513962"
       sodipodi:cy="365.3736"
       sodipodi:r1="130.95009"
       sodipodi:r2="42.689728"
       sodipodi:arg1="-0.0078853838"
       sodipodi:arg2="0.77751278"
       inkscape:rounded="0"
       inkscape:randomized="0"
       d="M 214.45998,364.34102 113.93725,395.32083 84.546543,496.31961 53.566732,395.79688 -47.432056,366.40618 53.090677,335.42637 82.481381,234.42758 113.46119,334.95031 Z"
       inkscape:transform-center-x="-6.4869036"
       inkscape:transform-center-y="-6.8675029"
       transform="matrix(0.53038902,0.53038902,-0.53038902,0.53038902,1139.4953,571.91497)" />
    <path
       id="path35"
       style="fill:#ff0000;stroke-width:0.925439"
       d="M 90 910 A 30 30 0 0 0 60.121094 938.31641 L 59.939453 938.31641 L 59.939453 959.97656 L 39.800781 959.97656 L 39.800781 960.00586 C 23.324496 960.11365 10 973.49833 10 990 C 10 1006.5016 23.324496 1019.8863 39.800781 1019.9941 L 39.800781 1020.0352 L 59.939453 1020.0352 L 59.939453 1039.6035 L 60.027344 1039.6035 A 30 30 0 0 0 60 1040 A 30 30 0 0 0 90 1070 A 30 30 0 0 0 120 1040 A 30 30 0 0 0 119.99023 1039.6035 L 119.99805 1039.6035 L 119.99805 1020.0352 L 141.08984 1020.0352 L 141.08984 1019.9219 A 30 30 0 0 0 170 990 A 30 30 0 0 0 141.08984 960.02734 L 141.08984 959.97656 L 119.99805 959.97656 L 119.99805 940.02734 A 30 30 0 0 0 120 940 A 30 30 0 0 0 119.99805 939.92188 L 119.99805 938.31641 L 119.94727 938.31641 A 30 30 0 0 0 90 910 z " />
    <path
       id="path39"
       style="fill:#ffd42a;stroke-width:0.925439"
       d="m 270,910 a 30,30 0 0 0 -29.87891,28.31641 h -0.18164 v 21.66015 h -20.13867 v 0.0293 C 203.3245,960.11365 190,973.49833 190,990 c 0,16.5016 13.3245,29.8863 29.80078,29.9941 v 0.041 h 20.13867 v 19.5683 h 0.0879 A 30,30 0 0 0 240,1040 a 30,30 0 0 0 30,30 30,30 0 0 0 30,-30 30,30 0 0 0 -0.01,-0.3965 h 0.008 v -19.5683 h 21.09179 v -0.1133 A 30,30 0 0 0 350,990 30,30 0 0 0 321.08984,960.02734 v -0.0508 H 299.99805 V 940.02734 A 30,30 0 0 0 300,940 a 30,30 0 0 0 -0.002,-0.0781 v -1.60547 h -0.0508 A 30,30 0 0 0 270,910 Z" />
    <path
       id="path40"
       style="fill:#008000;stroke-width:0.925439"
       d="m 450,910 a 30,30 0 0 0 -29.87891,28.31641 h -0.18164 v 21.66015 h -20.13867 v 0.0293 C 383.3245,960.11365 370,973.49833 370,990 c 0,16.5016 13.3245,29.8863 29.80078,29.9941 v 0.041 h 20.13867 v 19.5683 h 0.0879 A 30,30 0 0 0 420,1040 a 30,30 0 0 0 30,30 30,30 0 0 0 30,-30 30,30 0 0 0 -0.01,-0.3965 h 0.008 v -19.5683 h 21.09179 v -0.1133 A 30,30 0 0 0 530,990 30,30 0 0 0 501.08984,960.02734 v -0.0508 h -21.09179 v -19.9492 A 30,30 0 0 0 480,940 a 30,30 0 0 0 -0.002,-0.0781 v -1.60547 h -0.0508 A 30,30 0 0 0 450,910 Z" />
    <path
       id="path41"
       style="fill:#ff6600;stroke-width:0.925439"
       d="m 630,910 a 30,30 0 0 0 -29.87891,28.31641 h -0.18164 v 21.66015 h -20.13867 v 0.0293 C 563.3245,960.11365 550,973.49833 550,990 c 0,16.5016 13.3245,29.8863 29.80078,29.9941 v 0.041 h 20.13867 v 19.5683 h 0.0879 A 30,30 0 0 0 600,1040 a 30,30 0 0 0 30,30 30,30 0 0 0 30,-30 30,30 0 0 0 -0.01,-0.3965 h 0.008 v -19.5683 h 21.09179 v -0.1133 A 30,30 0 0 0 710,990 30,30 0 0 0 681.08984,960.02734 v -0.0508 h -21.09179 v -19.9492 A 30,30 0 0 0 660,940 a 30,30 0 0 0 -0.002,-0.0781 v -1.60547 h -0.0508 A 30,30 0 0 0 630,910 Z" />
    <path
       id="path42"
       style="fill:#0000ff;stroke-width:0.925439"
       d="m 810,910 a 30,30 0 0 0 -29.87891,28.31641 h -0.18164 v 21.66015 h -20.13867 v 0.0293 C 743.3245,960.11365 730,973.49833 730,990 c 0,16.5016 13.3245,29.8863 29.80078,29.9941 v 0.041 h 20.13867 v 19.5683 h 0.0879 A 30,30 0 0 0 780,1040 a 30,30 0 0 0 30,30 30,30 0 0 0 30,-30 30,30 0 0 0 -0.01,-0.3965 h 0.008 v -19.5683 h 21.09179 v -0.1133 A 30,30 0 0 0 890,990 30,30 0 0 0 861.08984,960.02734 v -0.0508 h -21.09179 v -19.9492 A 30,30 0 0 0 840,940 a 30,30 0 0 0 -0.002,-0.0781 v -1.60547 h -0.0508 A 30,30 0 0 0 810,910 Z" />
    <path
       id="path43"
       style="fill:#800080;stroke-width:0.925439"
       d="m 990,910 a 30,30 0 0 0 -29.87891,28.31641 h -0.18164 v 21.66015 h -20.13867 v 0.0293 C 923.3245,960.11365 910,973.49833 910,990 c 0,16.5016 13.3245,29.8863 29.80078,29.9941 v 0.041 h 20.13867 v 19.5683 h 0.0879 A 30,30 0 0 0 960,1040 a 30,30 0 0 0 30,30 30,30 0 0 0 30,-30 30,30 0 0 0 -0.01,-0.3965 h 0.01 v -19.5683 h 21.0918 v -0.1133 A 30,30 0 0 0 1070,990 30,30 0 0 0 1041.0898,960.02734 v -0.0508 h -21.0917 v -19.9492 a 30,30 0 0 0 0,-0.0273 30,30 0 0 0 -0,-0.0781 v -1.60547 h -0.051 A 30,30 0 0 0 990,910 Z" />
  </g>
</svg>
